# xmcd
#
# Track frame offsets: 
#        150
#        21985
#        42650
#        64060
#        85742
#        109575
#        129315
#        149415
#
# Disc length: 2279 seconds
#
# Revision: 1
# Processed by: cddbd v1.5.2PL0 Copyright (c) Steve Scherf et al.
# Submitted via: ExactAudioCopy v0.99pb5
#
DISCID=6c08e508
DTITLE=Salsa - Edwin Rivera - Contigo
DYEAR=1994
DGENRE=Salsa
TTITLE0=Contigo
TTITLE1=Dame La Oportunidad
TTITLE2=Lily
TTITLE3=Una Chica Como Tu
TTITLE4=Mi Niña Mimada
TTITLE5=Llegaste Tu
TTITLE6=Deseo Tenerte
TTITLE7=Sin Miedo Te Amare
EXTD=YEAR: 1994
EXTT0=
EXTT1=
EXTT2=
EXTT3=
EXTT4=
EXTT5=
EXTT6=
EXTT7=
PLAYORDER=
